<svg xmlns="http://www.w3.org/2000/svg" width="1200" height="330" viewBox="0 0 1200 330" role="img" aria-labelledby="title desc">
  <title id="title">Selected research highlights</title>
  <desc id="desc">Three visual research cards for SemanticUrban, SO3UFormer and Panoramic Scene Understanding.</desc>
  <defs>
    <linearGradient id="bg1" x1="0" y1="0" x2="1" y2="1"><stop stop-color="#0a151d"/><stop offset="1" stop-color="#10232c"/></linearGradient>
    <linearGradient id="bg2" x1="0" y1="0" x2="1" y2="1"><stop stop-color="#101421"/><stop offset="1" stop-color="#1a1930"/></linearGradient>
    <linearGradient id="bg3" x1="0" y1="0" x2="1" y2="1"><stop stop-color="#0b1717"/><stop offset="1" stop-color="#13231e"/></linearGradient>
    <clipPath id="c1"><rect x="0" width="380" height="330" rx="22"/></clipPath><clipPath id="c2"><rect x="410" width="380" height="330" rx="22"/></clipPath><clipPath id="c3"><rect x="820" width="380" height="330" rx="22"/></clipPath>
    <style>.ui{font-family:Inter,Segoe UI,Arial,sans-serif}.mono{font-family:SFMono-Regular,Consolas,monospace;letter-spacing:1.4px}.title{fill:#f0f6f7}.muted{fill:#7d939c}.point{animation:flicker 4s ease-in-out infinite}.p2{animation-delay:-1.3s}.p3{animation-delay:-2.7s}@keyframes flicker{0%,100%{opacity:.35}50%{opacity:1}}@media(prefers-reduced-motion:reduce){.point{animation:none}}</style>
  </defs>

  <g clip-path="url(#c1)">
    <rect width="380" height="330" fill="url(#bg1)"/>
    <circle cx="295" cy="75" r="145" fill="#6cd1da" fill-opacity=".08"/>
    <g transform="translate(45 48)" fill="#86dce2">
      <circle cx="150" cy="36" r="2" class="point"/><circle cx="170" cy="26" r="2"/><circle cx="193" cy="38" r="2.5" class="point p2"/><circle cx="217" cy="31" r="1.6"/><circle cx="239" cy="43" r="2"/>
      <circle cx="132" cy="59" r="1.5"/><circle cx="156" cy="65" r="2.4"/><circle cx="181" cy="57" r="1.8" class="point p3"/><circle cx="207" cy="68" r="2"/><circle cx="234" cy="62" r="2.4"/><circle cx="260" cy="72" r="1.5"/>
      <circle cx="117" cy="89" r="2"/><circle cx="143" cy="96" r="1.4"/><circle cx="172" cy="87" r="2.6"/><circle cx="202" cy="99" r="1.7"/><circle cx="232" cy="91" r="2.2"/><circle cx="268" cy="97" r="1.8"/>
      <path d="M117 89L156 65 181 57 207 68 239 43M143 96L172 87 202 99 232 91 268 97" fill="none" stroke="#86dce2" stroke-opacity=".25"/>
      <path d="M106 109L182 135 292 91 216 68Z" fill="#74cbd3" fill-opacity=".07" stroke="#86dce2" stroke-opacity=".2"/>
    </g>
    <text x="28" y="31" class="mono" font-size="9" fill="#78ccd4">01 · POINT-CLOUD DATASET</text>
    <text x="28" y="218" class="ui title" font-size="25" font-weight="600">SemanticUrban</text>
    <text x="28" y="248" class="ui muted" font-size="13">Fine-grained urban scene understanding</text>
    <text x="28" y="285" class="mono" font-size="9" fill="#8edce1">ESWA · 2026 · CO-FIRST</text>
    <path d="M28 305H352" stroke="#9bdde2" stroke-opacity=".15"/>
  </g>
  <rect x=".75" y=".75" width="378.5" height="328.5" rx="21.25" fill="none" stroke="#9bdde2" stroke-opacity=".18" stroke-width="1.5"/>

  <g clip-path="url(#c2)">
    <rect x="410" width="380" height="330" fill="url(#bg2)"/>
    <circle cx="690" cy="88" r="145" fill="#8e88dc" fill-opacity=".1"/>
    <g transform="translate(585 39)" fill="none" stroke="#aaa5e9">
      <circle cx="75" cy="75" r="67" fill="#8e88dc" fill-opacity=".04" stroke-opacity=".55"/>
      <ellipse cx="75" cy="75" rx="67" ry="24" stroke-opacity=".4"/>
      <ellipse cx="75" cy="75" rx="28" ry="67" stroke-opacity=".38"/>
      <path d="M12 51C42 63 106 63 138 50M12 99C45 87 108 87 138 101" stroke-opacity=".24"/>
      <circle cx="75" cy="75" r="5" fill="#b8b4f0" stroke="none" class="point"/>
      <path d="M139 75H175M-25 75H7" stroke-dasharray="3 6" stroke-opacity=".35"/>
    </g>
    <text x="438" y="31" class="mono" font-size="9" fill="#aaa5e9">02 · SPHERE-NATIVE MODELING</text>
    <text x="438" y="218" class="ui title" font-size="25" font-weight="600">SO3UFormer</text>
    <text x="438" y="248" class="ui muted" font-size="13">Rotation-robust panoramic prediction</text>
    <text x="438" y="285" class="mono" font-size="9" fill="#aaa5e9">2026 · UNDER REVIEW · OPEN CODE</text>
    <path d="M438 305H762" stroke="#aaa5e9" stroke-opacity=".15"/>
  </g>
  <rect x="410.75" y=".75" width="378.5" height="328.5" rx="21.25" fill="none" stroke="#aaa5e9" stroke-opacity=".18" stroke-width="1.5"/>

  <g clip-path="url(#c3)">
    <rect x="820" width="380" height="330" fill="url(#bg3)"/>
    <circle cx="1090" cy="75" r="145" fill="#7fd2aa" fill-opacity=".09"/>
    <g transform="translate(862 48)">
      <path d="M25 94C78 28 205 10 284 67" fill="none" stroke="#84d3ae" stroke-opacity=".45"/>
      <path d="M35 110C103 62 211 52 290 87" fill="none" stroke="#84d3ae" stroke-opacity=".2" stroke-dasharray="3 6"/>
      <g fill="#91d9b7">
        <circle cx="39" cy="83" r="5" class="point"/><circle cx="101" cy="40" r="4"/><circle cx="175" cy="28" r="5" class="point p2"/><circle cx="244" cy="46" r="4"/><circle cx="286" cy="75" r="5" class="point p3"/>
      </g>
      <g stroke="#91d9b7" stroke-opacity=".25"><path d="M39 83L101 40 175 28 244 46 286 75"/><path d="M101 40L126 91M175 28L183 100M244 46L229 99"/></g>
      <text x="20" y="137" class="mono" font-size="8" fill="#6e9b83">DISTORTION-AWARE</text><text x="183" y="137" class="mono" font-size="8" fill="#6e9b83">SPHERE-NATIVE</text>
    </g>
    <text x="848" y="31" class="mono" font-size="9" fill="#84d3ae">03 · PANORAMIC RESEARCH MAP</text>
    <text x="848" y="218" class="ui title" font-size="25" font-weight="600">Scene Understanding</text>
    <text x="848" y="248" class="ui muted" font-size="13">From engineering to native geometry</text>
    <text x="848" y="285" class="mono" font-size="9" fill="#84d3ae">2026 · SURVEY · CURATED REPOSITORY</text>
    <path d="M848 305H1172" stroke="#91d9b7" stroke-opacity=".15"/>
  </g>
  <rect x="820.75" y=".75" width="378.5" height="328.5" rx="21.25" fill="none" stroke="#91d9b7" stroke-opacity=".18" stroke-width="1.5"/>
</svg>
